<svg width="697" height="249" viewBox="0 0 697 249" fill="none" xmlns="http://www.w3.org/2000/svg">
<path d="M578.75 56.25H676.25L685 56.875L691.25 58.75L694.375 61.875L696.25 66.25V78.125L691.25 115L684.375 163.125L681.25 178.75L677.5 186.25L671.875 190L663.75 191.875L649.375 192.5H572.5L558.125 191.875L551.875 190.625L548.125 188.75L545.625 185.625L544.375 181.875V169.375L548.125 141.875L556.25 83.75L558.75 71.875L561.25 65L566.25 59.375L573.125 56.875L578.75 56.25Z" fill="#3A7786"/>
<path d="M120.625 55.625L165.625 56.25L164.375 66.25L163.75 72.5L160.625 83.125L156.875 89.375L151.875 92.5L147.5 93.75L142.5 94.375L129.375 95H66.875L61.875 96.25L60.625 98.75L56.25 127.5L52.5 153.75H151.875L150.625 165.625L148.125 178.125L145.625 184.375L142.5 188.125L136.875 190.625L131.25 191.875L118.125 192.5H46.875L45.625 203.125L41.875 228.125L39.375 237.5L36.25 242.5L32.5 245.625L26.875 247.5L23.75 248.125L13.75 248.75H0L0.625 241.25L7.5 191.875L23.75 78.125L26.25 67.5L30 61.875L33.75 58.75L40 56.875L45.625 56.25L120.625 55.625Z" fill="#3A7786"/>
<path d="M246.875 56.25H262.5L274.375 57.5L279.375 60L281.875 63.125L283.125 68.125L282.5 79.375L278.75 108.125L273.125 148.125V151.875L274.375 153.125L332.5 153.75L336.875 121.875L345.625 60.625L346.875 56.25H361.875L370.625 56.875L377.5 58.75L381.25 63.125L382.5 67.5V76.25L378.75 105.625L370 168.125L367.5 179.375L364.375 185.625L360 189.375L351.875 191.875L344.375 192.5H251.25L241.875 191.875L235.625 190L231.875 186.875L230.625 183.125V169.375L239.375 107.5L245.625 61.25L246.875 56.25Z" fill="#3A7786"/>
<path d="M423.125 56.25H443.125L442.5 63.75L436.875 103.125L436.25 105H496.875L500.625 78.75L503.125 68.75L506.25 62.5L510.625 58.75L516.25 56.875L521.875 56.25H543.125L536.25 105L533.75 113.75L530 119.375L522.5 124.375L526.875 126.875L530 131.875L530.625 133.125V145.625L526.25 174.375L523.75 182.5L521.25 186.25L517.5 189.375L509.375 191.875L500.625 192.5H485L485.625 183.75L491.25 143.75L431.25 144.375L426.875 171.875L424.375 181.25L420.625 187.5L416.875 190L409.375 191.875L402.5 192.5H385L386.25 181.875L391.875 142.5L393.75 135L397.5 128.75L402.5 125L405.625 124.375V123.125L401.875 121.875L398.125 116.875L396.875 112.5L397.5 102.5L401.25 76.875L403.75 67.5L407.5 61.25L411.25 58.75L417.5 56.875L423.125 56.25Z" fill="#3A7786"/>
<path d="M213.75 0H233.125L230 23.125L226.25 48.75L223.75 67.5L215 130.625L210 166.25L206.875 180L203.75 186.25L198.125 190L191.25 191.875L185.625 192.5H166.875L168.75 178.125L178.75 106.875L188.75 34.375L192.5 13.75L195.625 7.5L201.25 2.5L204.375 1.25L213.75 0Z" fill="#3A7786"/>
<path d="M600 94.375H655L653.125 109.375L646.25 151.25L643.75 153.75H585.625L586.25 146.875L592.5 103.125L593.75 97.5L596.875 95L600 94.375Z" fill="#9ba6a8"/>
</svg>
