<?xml version="1.0" encoding="utf-8" ?>
<svg xmlns="http://www.w3.org/2000/svg" xmlns:xlink="http://www.w3.org/1999/xlink" width="331" height="121">
	<path fill="white" d="M118.812 10.6046C120.945 10.5791 123.072 10.5534 125.201 10.4134C125.274 10.6291 125.337 10.8497 125.371 11.0753C125.604 12.6273 124.507 18.2874 124.268 20.2484C122.85 31.881 121.144 43.4503 119.477 55.0479C118.539 61.5735 117.825 68.1751 116.622 74.6565C116.224 76.7978 115.813 80.338 114.548 82.0626C112.583 84.7424 109.576 84.9677 106.556 85.4205C104.302 85.5336 102.079 85.5087 99.8249 85.444C99.4911 79.6068 101.019 72.4851 101.938 66.6681C102.689 61.917 103.33 57.1222 104.009 52.3582C105.586 41.2854 106.398 29.8767 108.761 18.9443C109.176 17.0241 109.574 14.9437 110.868 13.4054C112.88 11.0149 115.933 10.8714 118.812 10.6046Z"/>
	<path fill="white" d="M227.21 51.4326C227.931 50.7127 228.52 38.3931 231.014 35.0153C233.899 31.1084 241.184 32.6937 245.405 32.0746C246.266 33.7235 243.234 50.3822 242.602 52.6186C241.8 55.4584 240.309 57.5117 237.716 58.9665C238.53 59.4449 239.266 60.145 239.819 60.9077C241.836 63.6855 240.267 70.9079 239.775 74.172C239.336 77.088 238.79 81.8415 236.253 83.7141C235.051 84.997 231.303 85.1675 229.572 85.3753C228.03 85.8155 224.838 85.7205 223.327 85.0976C221.396 82.9286 225.373 70.3106 224.56 66.7177C223.374 66.2156 204.933 67.0242 201.953 67.1508C201.96 67.1808 201.967 67.2107 201.973 67.2407C202.422 69.4463 200.011 80.494 198.73 82.3214C197.488 84.0936 195.631 84.7657 193.58 85.133C191.712 85.4674 185.688 86.1641 184.188 85.1194C183.941 83.9402 184.211 82.4935 184.351 81.3037C184.885 76.7783 185.807 65.9693 187.748 62.3042C188.511 60.8632 189.986 59.6528 191.251 58.6556C191.246 58.6263 191.243 58.5968 191.236 58.5678C191.131 58.0881 189.388 56.7856 188.965 56.5042C189.254 55.733 188.854 54.187 188.779 53.3458C188.404 49.193 190.138 37.7378 192.721 34.6896C194.469 32.6264 197.629 32.5743 200.118 32.375C202.284 32.4042 204.444 32.4336 206.61 32.3419C206.711 32.5366 206.798 32.7533 206.832 32.9705C207.115 34.7639 205.059 49.872 203.963 51.458C207.529 51.176 211.054 51.3653 214.625 51.4053L227.21 51.4326Z"/>
	<path fill="white" d="M131.596 32.3735C134.954 32.2615 140.72 32.0122 143.51 34.2428C144.375 34.9347 144.483 35.8477 144.599 36.8982C145.3 43.2256 143.085 54.2589 142.159 60.987C141.825 63.4152 141.746 66.1492 141.11 68.5099C140.989 68.9618 140.731 69.3674 140.441 69.7298C143.711 69.6138 147.021 69.8446 150.292 69.9138Q156.763 69.9949 163.235 69.9693C163.248 69.9574 163.263 69.9464 163.276 69.9338C163.42 69.7943 163.46 69.6623 163.493 69.4721C164.929 61.0796 166.012 52.6124 167.287 44.192C167.716 41.3554 168.078 38.5081 168.524 35.6742C168.694 34.5883 169.093 33.5764 169.139 32.4711L169.625 32.4582C173.067 32.3814 179.286 31.7309 181.94 34.313C183.158 35.498 183.506 37.1523 183.539 38.7946C183.572 40.4452 182.811 49.6464 181.87 50.6302C182.131 51.4655 181.997 52.3991 181.915 53.2566C181.605 56.4706 180.976 59.6789 180.515 62.8759C179.679 68.6777 179.224 75.2381 177.184 80.7384C176.706 82.0287 176.143 83.0961 175.065 83.9842C174.955 84.0643 174.841 84.141 174.721 84.2044C173.135 85.0385 170.573 85.2883 168.783 85.4142C163.188 85.8075 157.426 85.4393 151.808 85.4531C145.182 85.4693 138.352 85.8488 131.749 85.4345C130.199 85.3373 128.601 85.1212 127.11 84.6725C126.244 84.4116 125.297 84.1912 124.853 83.344C123.995 81.7082 123.96 79.3405 124.05 77.5204C124.279 72.8999 125.188 68.2745 125.905 63.7105C126.648 58.9755 127.273 54.2177 127.948 49.4723C128.463 45.8448 129.273 36.8166 130.209 33.9554C130.486 33.1064 130.818 32.7714 131.596 32.3735Z"/>
	<path fill="white" d="M78.8149 32.1117C81.6235 31.8902 96.7729 31.9853 98.8719 32.4382C99.1075 32.6848 99.2785 32.9575 99.3358 33.2986C99.8779 36.5261 97.5672 43.0704 95.5944 45.7687C90.4399 48.8047 73.1238 47.557 66.4221 47.6679C64.0716 47.7068 61.1254 47.5171 58.9593 48.4877C58.8011 48.6892 58.6956 48.8959 58.6168 49.1407C57.8085 51.6533 57.961 54.8861 57.6099 57.5295C57.1393 61.0727 56.1758 64.6955 55.9653 68.2865C55.9265 68.9483 55.9409 69.2328 56.2424 69.8206C56.4645 69.9397 56.7068 70.0512 56.962 70.0642C58.2549 70.1304 59.6017 69.8903 60.9093 69.9023Q68.2483 70.0358 75.5885 70.0125C81.699 70.0339 88.0234 70.5139 94.1026 70.0647C93.0677 74.1209 93.7847 80.1807 90.5693 83.347C87.7042 86.1684 77.9694 85.4904 74.125 85.4854C67.2864 85.4993 60.4272 85.6164 53.5915 85.4298C53.1885 90.0774 51.9749 101.791 48.7206 104.947C45.5074 108.063 39.2739 107.526 35.1256 107.44C35.1019 102.234 36.0396 97.0128 36.7941 91.8748L39.4047 73.7292L42.2865 53.0841C42.8857 48.7892 43.3526 44.4084 44.3025 40.1751C44.7402 38.2248 45.2401 36.0644 46.6252 34.548C47.5871 33.4949 48.7747 33.0677 50.1439 32.7763C53.4682 32.0689 57.0633 32.2656 60.4473 32.2452C66.5647 32.2082 72.7031 32.3573 78.8149 32.1117Z"/>
	<path fill="white" d="M257.228 32.6248C264.696 32.0424 272.406 32.4272 279.901 32.443C285.821 32.4556 292.022 32.0764 297.908 32.5833C299.451 32.7162 301.914 32.9974 303.186 33.905C304.057 34.5266 304.786 35.7996 304.944 36.8513C305.619 41.3453 301.231 70.5161 299.925 76.4725C299.531 78.2681 299.16 80.4749 298.05 81.9822C296.563 83.9992 294.998 84.7141 292.555 85.0674C290.645 85.9095 258.284 85.7033 253.929 85.422C251.587 85.2706 249.372 84.8622 247.109 84.2486C247.091 83.7314 246.457 82.9311 246.273 82.3757C245.834 81.0502 245.611 79.3867 245.652 77.9951C245.823 72.1543 247.068 66.0833 247.885 60.2922C248.783 53.9285 249.388 47.4388 250.702 41.1472C251.052 39.4691 251.503 37.6065 252.285 36.07C253.342 33.9924 255.16 33.3139 257.228 32.6248ZM287.466 47.3752L287.402 47.3874C284.077 47.9919 275.609 47.5362 271.803 47.4825C270.21 47.46 268.449 47.2482 266.879 47.5608C266.329 47.6703 265.957 47.8445 265.631 48.306C265.134 49.0095 264.909 49.8958 264.732 50.7277C264.302 52.7459 261.902 68.6278 262.087 69.6583C262.114 69.8085 262.165 69.9561 262.219 70.0981C262.478 70.1479 262.74 70.2268 263.001 70.1692C266.304 70.0806 283.321 70.7971 284.96 69.7676C285.604 68.6932 288.198 50.5085 288.627 47.5862C288.205 47.2794 287.966 47.3609 287.466 47.3752Z"/>
</svg>
