<svg width="395" height="345" viewBox="0 0 395 345" fill="none" xmlns="http://www.w3.org/2000/svg">
<path d="M100.625 0H295L299.375 3.75L309.375 21.25L318.75 37.5L327.5 52.5L393.125 166.25L395 170V174.375L388.125 186.875L380 200.625L372.5 213.75L363.125 230L356.875 240.625L347.5 256.875L337.5 274.375L300 339.375L296.875 343.125L292.5 344.375H102.5L98.125 343.125L94.375 338.125L47.5 256.875L38.75 241.875L1.25 176.875L0 174.375V170L3.125 163.75L11.875 148.75L49.375 83.75L58.125 68.75L68.125 51.25L76.875 36.25L84.375 23.125L93.125 8.125L96.875 2.5L98.75 0.625L100.625 0ZM106.875 15L103.75 20L94.375 36.25L85.625 51.25L75.625 68.75L66.875 83.75L57.5 100L47.5 117.5L41.25 128.125L31.25 145.625L22.5 160.625L16.25 171.25L17.5 175L36.25 207.5L45 222.5L55 240L64.375 256.25L73.125 271.25L101.25 320L106.25 328.75L162.5 329.375H241.25L288.75 328.75L296.875 314.375L305.625 299.375L315.625 281.875L325.625 265L334.375 249.375L340.625 238.75L350 222.5L358.75 207.5L378.75 172.5L377.5 169.375L367.5 151.875L348.75 119.375L340 104.375L330 86.875L321.25 71.875L313.75 58.75L304.375 42.5L295.625 27.5L288.75 15.625L288.125 15H106.875Z"/>
<path d="M265.625 43.75H285.625L286.25 44.375V107.5L285.625 108.125H173.125L172.5 140H265V203.75H172.5V300H108.75V278.75H151.25V183.125L243.125 182.5L243.75 161.25H151.25V86.875H265V44.375L265.625 43.75Z" />
<path d="M109.375 43.75H243.125L243.75 44.375V65H130V256.875L129.375 257.5H108.75L108.125 238.125V87.5L108.75 44.375L109.375 43.75Z" />
</svg>
